name Walk9.mot
datacolumns 19
datarows 17
range 2.49000000 2.57000000
endheader

                time	   L_ground_force_vx	   L_ground_force_vy	   L_ground_force_vz	   L_ground_force_px	   L_ground_force_py	   L_ground_force_pz	   R_ground_force_vx	   R_ground_force_vy	   R_ground_force_vz	   R_ground_force_px	   R_ground_force_py	   R_ground_force_pz	   L_ground_torque_x	   L_ground_torque_y	   L_ground_torque_z	   R_ground_torque_x	   R_ground_torque_y	   R_ground_torque_z	
          2.49000000	         -0.00000000	         -0.00000000	          0.00000000	         -0.00000000	          0.00000000	         -0.00000000	          7.04224490	         19.54311363	          8.23411071	          0.37172484	          0.00000000	          0.05502408	          0.00000000	         -0.00000000	          0.00000000	          0.00000000	         -1.43095491	          0.00000000	
          2.49500000	         -0.00000000	         -0.00000000	          0.00000000	         -0.00000000	          0.00000000	         -0.00000000	          3.87237851	          8.61722553	          5.84173424	          0.29554239	          0.00000000	          0.04388226	          0.00000000	         -0.00000000	          0.00000000	          0.00000000	         -0.80418384	          0.00000000	
          2.50000000	         -0.00000000	         -0.00000000	          0.00000000	          0.00000000	          0.00000000	         -0.00000000	          1.53334199	          0.92922103	          3.84555405	          0.22331828	          0.00000000	          0.03326726	          0.00000000	         -0.00000000	          0.00000000	          0.00000000	         -0.33864733	          0.00000000	
          2.50500000	         -0.00000000	         -0.00000000	          0.00000000	          0.00000000	          0.00000000	          0.00000000	         -0.08790562	         -4.07443747	          2.26130553	          0.15934058	          0.00000000	          0.02382903	          0.00000000	         -0.00000000	          0.00000000	          0.00000000	         -0.01332488	          0.00000000	
          2.51000000	         -0.00000000	         -0.00000000	          0.00000000	          0.00000000	          0.00000000	          0.00000000	         -1.12062804	         -6.96094800	          1.06651573	          0.10571100	          0.00000000	          0.01589189	          0.00000000	         -0.00000000	          0.00000000	          0.00000000	          0.19635195	          0.00000000	
          2.51500000	         -0.00000000	         -0.00000000	          0.00000000	          0.00000000	          0.00000000	          0.00000000	         -1.69426479	         -8.26148447	          0.21597167	          0.06295893	          0.00000000	          0.00954510	          0.00000000	         -0.00000000	          0.00000000	          0.00000000	          0.31528457	          0.00000000	
          2.52000000	         -0.00000000	         -0.00000000	          0.00000000	          0.00000000	          0.00000000	          0.00000000	         -1.92813107	         -8.44210978	         -0.34654650	          0.03056357	          0.00000000	          0.00472012	          0.00000000	         -0.00000000	          0.00000000	          0.00000000	          0.36661855	          0.00000000	
          2.52500000	         -0.00000000	         -0.00000000	          0.00000000	          0.00000000	          0.00000000	          0.00000000	         -1.92561313	         -7.89027248	         -0.67987087	          0.00737184	          0.00000000	          0.00125265	          0.00000000	         -0.00000000	          0.00000000	          0.00000000	          0.37054295	          0.00000000	
          2.53000000	         -0.00000000	         -0.00000000	          0.00000000	          0.00000000	          0.00000000	          0.00000000	         -1.77170571	         -6.91236477	         -0.83985577	         -0.00808359	          0.00000000	         -0.00107004	          0.00000000	         -0.00000000	          0.00000000	          0.00000000	          0.34375413	          0.00000000	
          2.53500000	         -0.00000000	         -0.00000000	          0.00000000	          0.00000000	          0.00000000	          0.00000000	         -1.53288736	         -5.73856702	         -0.87602855	         -0.01735554	          0.00000000	         -0.00247491	          0.00000000	         -0.00000000	          0.00000000	          0.00000000	          0.29938817	          0.00000000	
          2.54000000	          0.00000000	         -0.00000000	          0.00000000	          0.00000000	          0.00000000	          0.00000000	         -1.25850492	         -4.53198200	         -0.82994218	         -0.02192885	          0.00000000	         -0.00318009	          0.00000000	         -0.00000000	          0.00000000	          0.00000000	          0.24725917	          0.00000000	
          2.54500000	          0.00000000	         -0.00000000	          0.00000000	          0.00000000	          0.00000000	          0.00000000	         -0.98301626	         -3.39979742	         -0.73474950	         -0.02312732	          0.00000000	         -0.00338080	          0.00000000	         -0.00000000	          0.00000000	          0.00000000	          0.19427463	          0.00000000	
          2.55000000	          0.00000000	          0.00000000	          0.00000000	          0.00000000	          0.00000000	          0.00000000	         -0.72860602	         -2.40486651	         -0.61559447	         -0.02206678	          0.00000000	         -0.00324213	          0.00000000	          0.00000000	          0.00000000	          0.00000000	          0.14493190	          0.00000000	
          2.55500000	          0.00000000	          0.00000000	         -0.00000000	          0.00000000	          0.00000000	          0.00000000	         -0.50783373	         -1.57664073	         -0.49049658	         -0.01964147	          0.00000000	         -0.00289679	          0.00000000	          0.00000000	          0.00000000	          0.00000000	          0.10182700	          0.00000000	
          2.56000000	          0.00000000	          0.00000000	         -0.00000000	          0.00000000	          0.00000000	          0.00000000	         -0.32609323	         -0.92082237	         -0.37148138	         -0.01653275	          0.00000000	         -0.00244623	          0.00000000	          0.00000000	          0.00000000	          0.00000000	          0.06613138	          0.00000000	
          2.56500000	          0.00000000	          0.00000000	         -0.00000000	          0.00000000	          0.00000000	          0.00000000	         -0.18375654	         -0.42743284	         -0.26577955	         -0.01323166	          0.00000000	         -0.00196383	          0.00000000	          0.00000000	          0.00000000	          0.00000000	          0.03801028	          0.00000000	
          2.57000000	          0.00000000	          0.00000000	         -0.00000000	         -0.00000000	          0.00000000	          0.00000000	         -0.07794586	         -0.07722692	         -0.17697507	         -0.01006826	          0.00000000	         -0.00149916	          0.00000000	          0.00000000	          0.00000000	          0.00000000	          0.01697061	          0.00000000	
